<svg id="svg" version="1.1" xmlns="http://www.w3.org/2000/svg" xmlns:xlink="http://www.w3.org/1999/xlink" width="400" height="400" viewBox="0, 0, 400,400"><g id="svgg"><path id="path0" d="M148.026 154.722 C 173.116 154.775,214.283 154.775,239.507 154.722 C 264.732 154.670,244.204 154.627,193.889 154.627 C 143.574 154.627,122.936 154.670,148.026 154.722 M86.362 159.062 C 84.493 159.972,82.963 160.807,82.963 160.918 C 82.963 161.029,84.255 160.483,85.833 159.705 C 87.412 158.926,89.120 158.102,89.630 157.874 C 90.139 157.645,90.377 157.446,90.158 157.432 C 89.940 157.419,88.231 158.152,86.362 159.062 M149.752 160.278 C 174.162 160.330,213.995 160.330,238.270 160.278 C 262.546 160.225,242.574 160.182,193.889 160.182 C 145.204 160.182,125.342 160.225,149.752 160.278 M101.574 160.626 C 101.931 160.719,102.514 160.719,102.870 160.626 C 103.227 160.533,102.935 160.456,102.222 160.456 C 101.509 160.456,101.218 160.533,101.574 160.626 M285.278 160.626 C 285.634 160.719,286.218 160.719,286.574 160.626 C 286.931 160.533,286.639 160.456,285.926 160.456 C 285.213 160.456,284.921 160.533,285.278 160.626 M80.741 162.213 C 77.784 164.162,77.269 164.578,74.311 167.404 C 67.476 173.935,60.571 186.535,60.763 192.125 C 60.776 192.484,61.167 191.361,61.632 189.630 C 64.561 178.735,70.830 169.604,79.630 163.416 C 80.954 162.485,82.195 161.586,82.389 161.417 C 83.120 160.781,82.347 161.154,80.741 162.213 M306.111 161.717 C 306.315 161.922,307.660 162.946,309.100 163.993 C 312.584 166.526,317.555 171.740,319.828 175.243 C 322.438 179.266,322.769 179.697,321.634 177.593 C 318.732 172.210,312.037 165.156,306.852 162.018 C 306.241 161.648,305.907 161.513,306.111 161.717 M293.704 162.407 C 295.395 163.059,296.060 163.049,294.630 162.394 C 294.019 162.114,293.269 161.890,292.963 161.897 C 292.657 161.903,292.991 162.133,293.704 162.407 M88.671 164.393 C 76.468 170.378,68.479 181.112,66.108 194.707 C 65.420 198.655,65.293 240.150,65.956 244.559 C 68.088 258.736,79.892 273.882,91.111 276.836 C 91.620 276.970,90.617 276.362,88.880 275.484 C 77.287 269.624,69.385 259.238,66.780 246.434 C 65.912 242.171,65.758 199.121,66.594 194.630 C 69.122 181.047,76.970 170.559,89.064 164.596 C 91.300 163.494,92.952 162.593,92.735 162.593 C 92.519 162.593,90.690 163.403,88.671 164.393 M298.897 164.516 C 311.660 170.966,319.902 182.763,321.489 196.852 C 322.197 203.129,321.771 243.880,320.961 247.407 C 317.686 261.675,307.272 273.145,293.519 277.632 C 291.481 278.297,290.015 278.852,290.259 278.865 C 291.228 278.917,297.009 276.870,299.630 275.546 C 311.017 269.793,318.956 259.430,321.486 247.016 C 322.477 242.150,322.620 199.417,321.663 193.929 C 319.326 180.528,307.684 166.204,296.667 163.175 C 296.157 163.035,297.161 163.638,298.897 164.516 M192.884 168.452 C 192.535 168.590,193.869 168.704,195.847 168.705 C 199.976 168.706,201.575 169.321,204.031 171.852 L 205.440 173.303 206.650 172.054 C 209.314 169.306,215.036 167.925,219.444 168.966 C 220.473 169.209,220.460 169.186,219.259 168.648 C 216.247 167.298,210.140 168.666,206.623 171.478 L 205.282 172.549 204.228 171.449 C 201.712 168.822,195.852 167.274,192.884 168.452 M94.815 169.366 C 94.815 169.629,95.148 170.497,95.556 171.296 C 96.710 173.562,96.709 217.281,95.554 219.176 C 94.140 221.495,94.107 221.481,101.481 221.481 C 105.148 221.481,108.148 221.416,108.148 221.337 C 108.148 221.257,107.818 220.465,107.416 219.577 C 106.765 218.143,106.682 217.134,106.675 210.528 C 106.666 202.234,106.604 202.442,109.537 200.960 C 110.199 200.625,110.741 200.276,110.741 200.184 C 110.741 199.840,108.656 200.930,107.258 202.004 L 105.813 203.115 106.047 210.624 C 106.216 216.066,106.435 218.505,106.844 219.482 C 107.154 220.224,107.407 220.894,107.407 220.971 C 107.407 221.048,104.657 221.111,101.296 221.111 C 94.748 221.111,94.745 221.110,95.925 219.176 C 97.080 217.281,97.081 173.562,95.926 171.296 C 95.519 170.497,95.185 169.715,95.185 169.557 C 95.185 169.400,99.644 169.224,105.093 169.166 L 115.000 169.061 104.907 168.975 C 96.875 168.906,94.815 168.986,94.815 169.366 M188.682 170.210 C 185.040 172.396,183.120 175.448,182.720 179.686 C 182.507 181.940,182.430 182.088,180.850 183.274 C 179.944 183.954,179.307 184.616,179.436 184.745 C 179.565 184.873,179.786 184.808,179.928 184.599 C 180.069 184.391,180.780 183.774,181.506 183.229 C 182.714 182.323,182.865 181.996,183.262 179.445 C 183.995 174.729,185.923 171.911,189.712 170.017 C 190.954 169.397,191.725 168.889,191.426 168.889 C 191.127 168.889,189.892 169.483,188.682 170.210 M117.130 169.515 C 117.486 169.608,118.069 169.608,118.426 169.515 C 118.782 169.421,118.491 169.345,117.778 169.345 C 117.065 169.345,116.773 169.421,117.130 169.515 M221.667 169.940 C 224.176 171.470,226.164 174.549,226.667 177.685 L 226.920 179.259 223.089 179.259 L 219.259 179.259 219.250 176.759 C 219.233 171.843,218.086 169.630,215.556 169.630 C 212.768 169.630,211.757 172.575,212.123 179.630 C 212.393 184.857,212.606 184.174,212.559 178.230 C 212.505 171.607,212.985 170.251,215.441 170.072 C 217.641 169.912,218.175 170.862,218.640 175.772 L 219.005 179.630 223.183 179.630 L 227.361 179.630 227.167 178.241 C 226.638 174.457,223.046 169.254,220.968 169.261 C 220.741 169.261,221.056 169.567,221.667 169.940 M193.801 170.196 C 192.578 171.053,192.220 173.019,192.288 178.519 L 192.350 183.519 192.580 177.778 C 192.823 171.702,193.146 170.532,194.685 170.141 C 197.484 169.430,198.570 170.947,198.808 175.903 L 198.988 179.630 200.790 179.630 C 202.487 179.630,202.593 179.686,202.593 180.598 C 202.593 181.503,200.348 184.074,199.557 184.074 C 199.393 184.074,199.259 184.244,199.259 184.452 C 199.259 184.659,200.093 184.207,201.111 183.447 C 202.764 182.213,202.963 181.913,202.963 180.662 L 202.963 179.259 201.111 179.259 L 199.259 179.259 199.259 176.304 C 199.259 170.734,196.862 168.052,193.801 170.196 M106.173 170.617 C 105.867 170.923,105.841 200.741,106.147 200.741 C 106.268 200.741,106.844 200.401,107.427 199.986 C 108.010 199.571,109.369 198.818,110.447 198.313 C 111.525 197.809,111.991 197.498,111.481 197.624 C 110.972 197.750,109.681 198.337,108.611 198.929 L 106.667 200.006 106.667 185.392 L 106.667 170.778 108.796 170.644 L 110.926 170.510 108.673 170.440 C 107.434 170.402,106.309 170.481,106.173 170.617 M113.241 171.002 C 113.699 171.090,114.449 171.090,114.907 171.002 C 115.366 170.914,114.991 170.842,114.074 170.842 C 113.157 170.842,112.782 170.914,113.241 171.002 M117.593 171.996 C 125.110 175.561,126.850 187.462,120.632 192.785 C 119.846 193.457,118.091 194.619,116.731 195.365 C 115.372 196.112,114.593 196.617,115.000 196.487 C 124.279 193.540,127.771 183.146,122.131 175.260 C 120.915 173.559,117.473 171.107,116.313 171.115 C 115.998 171.117,116.574 171.513,117.593 171.996 M127.538 172.720 C 135.029 178.047,134.859 189.712,127.222 194.404 C 126.204 195.030,125.499 195.545,125.656 195.549 C 126.902 195.579,131.239 191.904,132.202 190.000 C 134.315 185.824,133.612 178.810,130.715 175.152 C 129.642 173.798,126.712 171.481,126.072 171.481 C 125.920 171.481,126.580 172.039,127.538 172.720 M322.980 180.413 C 322.971 180.538,323.468 181.704,324.085 183.005 C 324.701 184.306,325.097 184.954,324.963 184.444 C 324.707 183.472,323.010 180.020,322.980 180.413 M156.852 182.980 C 156.336 183.214,156.560 183.247,157.593 183.090 C 158.407 182.966,159.144 182.803,159.228 182.729 C 159.547 182.448,157.563 182.658,156.852 182.980 M162.623 182.726 C 162.708 182.799,163.611 182.964,164.630 183.093 C 165.894 183.254,166.305 183.213,165.926 182.966 C 165.425 182.639,162.256 182.408,162.623 182.726 M229.619 183.126 C 225.055 184.809,221.322 187.841,219.990 190.949 C 219.166 192.871,219.096 193.333,219.630 193.333 C 219.833 193.333,220.000 193.082,220.000 192.774 C 220.000 189.308,226.212 184.018,231.481 182.997 C 232.744 182.752,232.879 182.670,232.037 182.659 C 231.426 182.651,230.338 182.862,229.619 183.126 M236.327 182.726 C 236.412 182.800,237.231 182.969,238.148 183.102 C 239.313 183.271,239.647 183.232,239.259 182.974 C 238.760 182.641,235.956 182.404,236.327 182.726 M241.739 184.236 C 245.289 185.889,247.988 188.997,249.157 192.778 L 249.615 194.259 249.423 192.883 C 248.986 189.758,245.273 185.265,241.995 183.895 C 239.833 182.992,239.634 183.257,241.739 184.236 M261.579 183.599 C 262.142 183.684,262.975 183.682,263.431 183.594 C 263.887 183.506,263.426 183.436,262.407 183.439 C 261.389 183.442,261.016 183.514,261.579 183.599 M283.704 183.534 C 283.704 183.644,284.060 184.216,284.495 184.805 C 285.687 186.416,285.319 188.073,281.867 196.667 C 280.189 200.843,278.654 204.676,278.455 205.185 L 278.092 206.111 277.578 205.185 C 276.950 204.055,276.874 204.423,277.467 205.723 C 278.158 207.241,278.251 207.078,281.953 197.870 C 286.069 187.631,286.230 187.007,285.241 185.093 L 284.524 183.704 287.331 183.704 L 290.139 183.704 289.124 184.763 C 288.180 185.748,285.574 191.233,285.052 193.333 C 284.792 194.384,285.420 193.048,287.134 188.913 C 287.761 187.398,288.849 185.523,289.551 184.746 L 290.827 183.333 287.265 183.333 C 285.306 183.333,283.704 183.423,283.704 183.534 M158.031 184.722 C 156.058 186.199,152.963 191.651,152.963 193.649 C 152.963 193.854,152.588 194.095,152.130 194.183 C 151.373 194.329,151.384 194.348,152.256 194.394 C 153.081 194.437,153.281 194.223,153.680 192.870 C 154.950 188.556,157.171 185.224,159.444 184.222 C 160.056 183.953,160.294 183.726,159.973 183.718 C 159.653 183.710,158.779 184.162,158.031 184.722 M162.812 184.286 C 165.605 185.664,167.865 196.313,165.463 196.776 C 164.730 196.917,164.750 196.942,165.622 196.987 C 166.836 197.048,166.945 196.550,166.619 192.407 C 166.209 187.198,164.486 183.686,162.352 183.712 C 161.879 183.718,162.022 183.896,162.812 184.286 M169.036 184.498 C 175.049 187.669,175.702 189.665,175.926 205.560 C 176.106 218.380,176.132 218.746,176.938 220.005 C 177.393 220.715,177.768 221.125,177.772 220.916 C 177.775 220.706,177.486 220.123,177.130 219.619 C 176.550 218.801,176.462 217.287,176.296 205.370 C 176.088 190.396,176.161 190.801,173.040 187.329 C 171.660 185.794,168.711 183.690,167.983 183.720 C 167.768 183.729,168.242 184.079,169.036 184.498 M236.129 184.224 C 238.987 185.469,241.288 196.296,238.796 196.776 C 238.221 196.886,238.353 196.952,239.221 196.987 L 240.480 197.037 240.235 193.611 C 239.798 187.495,238.024 183.666,235.654 183.718 C 235.251 183.727,235.434 183.922,236.129 184.224 M266.351 184.539 C 268.472 185.844,270.132 188.152,271.859 192.196 C 272.736 194.249,273.518 195.865,273.597 195.786 C 274.465 194.918,268.646 185.283,266.621 184.236 C 265.025 183.410,264.845 183.612,266.351 184.539 M151.667 185.327 C 148.228 187.583,144.416 193.333,146.358 193.333 C 146.596 193.333,146.688 193.231,146.563 193.106 C 145.613 192.156,148.894 187.576,151.958 185.574 C 153.220 184.749,154.088 184.083,153.886 184.093 C 153.684 184.103,152.685 184.658,151.667 185.327 M231.243 184.894 C 229.786 185.929,228.513 187.969,227.201 191.371 C 226.446 193.327,225.966 194.080,225.401 194.191 C 224.775 194.315,224.811 194.353,225.590 194.394 C 226.412 194.437,226.616 194.221,227.018 192.880 C 227.949 189.773,229.667 186.693,231.200 185.380 C 232.932 183.898,232.951 183.681,231.243 184.894 M255.719 185.398 C 253.111 186.967,252.222 187.722,252.222 188.369 C 252.222 189.176,252.898 189.318,253.973 188.735 C 254.538 188.429,254.864 188.171,254.698 188.163 C 254.532 188.155,254.090 188.312,253.716 188.512 C 253.214 188.781,252.983 188.735,252.830 188.336 C 252.686 187.962,253.548 187.228,255.648 185.936 C 257.312 184.912,258.503 184.074,258.296 184.074 C 258.089 184.074,256.929 184.670,255.719 185.398 M182.761 200.807 C 182.777 216.632,182.795 217.006,183.553 218.029 C 184.466 219.259,186.908 220.739,187.963 220.703 C 188.529 220.683,188.471 220.607,187.719 220.380 C 183.129 218.993,183.183 219.218,182.946 200.556 L 182.744 184.630 182.761 200.807 M192.393 201.861 L 192.407 219.093 193.241 220.152 C 193.699 220.734,194.074 220.993,194.074 220.727 C 194.074 220.461,193.782 219.921,193.426 219.528 C 192.835 218.875,192.760 217.310,192.578 201.721 L 192.379 184.630 192.393 201.861 M202.296 200.463 C 202.424 218.428,202.359 218.039,205.532 219.766 C 206.517 220.302,207.633 220.733,208.013 220.724 C 208.393 220.716,208.080 220.486,207.318 220.214 C 202.868 218.626,202.963 219.056,202.963 200.382 C 202.963 189.755,202.840 184.815,202.574 184.815 C 202.307 184.815,202.220 189.708,202.296 200.463 M212.308 201.575 C 212.225 217.901,212.249 218.572,212.963 219.903 C 213.370 220.663,213.704 221.029,213.704 220.717 C 213.704 220.404,213.495 219.940,213.241 219.685 C 212.889 219.334,212.731 215.057,212.585 201.926 L 212.393 184.630 212.308 201.575 M259.103 190.166 C 261.134 192.313,263.168 196.672,269.594 212.643 C 272.667 220.279,272.569 219.483,270.920 223.393 C 268.634 228.815,266.615 231.772,264.630 232.605 C 264.038 232.853,264.014 232.921,264.509 232.939 C 266.293 233.007,269.075 229.220,271.455 223.484 L 273.006 219.746 270.054 212.373 C 263.160 195.157,261.096 190.924,258.708 189.102 C 256.896 187.721,256.965 187.905,259.103 190.166 M60.237 194.671 C 60.107 195.622,60.023 197.168,60.050 198.107 C 60.082 199.213,60.212 198.651,60.418 196.510 C 60.755 193.000,60.634 191.772,60.237 194.671 M121.667 196.808 L 120.556 197.287 122.090 198.075 C 124.282 199.201,126.551 202.067,129.628 207.593 C 134.075 215.579,137.100 219.630,138.617 219.630 C 138.861 219.630,138.455 219.218,137.714 218.715 C 136.131 217.639,134.050 214.595,130.365 207.963 C 126.785 201.521,124.969 199.213,122.430 197.886 L 121.342 197.316 122.430 196.836 C 123.029 196.572,123.352 196.350,123.148 196.343 C 122.944 196.336,122.278 196.545,121.667 196.808 M274.583 198.519 C 274.908 199.721,276.027 202.244,276.171 202.100 C 276.255 202.016,275.898 201.051,275.378 199.955 C 274.859 198.860,274.501 198.213,274.583 198.519 M153.519 199.239 C 151.601 200.146,151.904 200.153,154.444 199.259 C 155.565 198.865,156.148 198.542,155.741 198.540 C 155.333 198.539,154.333 198.853,153.519 199.239 M165.093 198.773 L 166.296 198.936 166.296 205.735 L 166.296 212.535 165.090 214.138 C 164.355 215.115,163.099 216.139,161.875 216.759 C 160.771 217.319,160.070 217.778,160.319 217.778 C 161.998 217.778,166.415 213.930,166.873 212.068 C 166.978 211.644,167.016 208.463,166.957 205.000 L 166.852 198.704 165.370 198.657 C 164.174 198.618,164.120 198.641,165.093 198.773 M238.426 198.786 L 239.630 198.936 239.630 205.597 C 239.630 213.729,239.162 214.881,234.986 217.044 C 234.170 217.467,233.930 217.692,234.444 217.552 C 236.110 217.097,238.075 215.610,239.233 213.926 L 240.370 212.274 240.370 205.396 L 240.370 198.519 238.796 198.578 C 237.432 198.629,237.382 198.657,238.426 198.786 M327.951 220.000 C 327.951 231.917,327.998 236.792,328.055 230.833 C 328.113 224.875,328.113 215.125,328.055 209.167 C 327.998 203.208,327.951 208.083,327.951 220.000 M225.926 199.630 C 224.227 200.560,224.676 200.565,226.719 199.638 C 227.607 199.235,228.083 198.908,227.778 198.913 C 227.472 198.917,226.639 199.239,225.926 199.630 M249.711 208.815 C 249.632 218.290,249.886 220.741,250.948 220.741 C 251.052 220.741,250.923 220.366,250.661 219.907 C 250.321 219.311,250.129 216.226,249.988 209.074 L 249.791 199.074 249.711 208.815 M115.685 200.959 C 117.276 202.576,120.280 207.309,123.296 212.948 C 125.291 216.679,127.554 219.656,128.972 220.415 C 129.384 220.635,128.809 219.904,127.694 218.789 C 126.248 217.343,125.058 215.570,123.533 212.589 C 120.075 205.829,116.703 200.817,115.000 199.906 C 114.593 199.688,114.901 200.162,115.685 200.959 M158.039 200.534 C 151.121 204.640,149.714 214.201,155.581 217.236 C 157.257 218.102,157.336 217.864,155.734 216.777 C 150.056 212.923,151.638 204.294,158.701 200.597 C 159.718 200.065,160.301 199.645,159.997 199.665 C 159.693 199.684,158.812 200.075,158.039 200.534 M231.481 200.541 C 225.017 203.943,223.322 213.250,228.511 216.847 C 229.250 217.359,230.096 217.777,230.390 217.775 C 230.685 217.774,230.426 217.513,229.815 217.195 C 223.587 213.957,224.768 204.412,231.852 200.725 C 232.972 200.142,233.722 199.665,233.519 199.665 C 233.315 199.664,232.398 200.059,231.481 200.541 M149.154 201.141 C 142.030 204.818,140.408 213.073,145.782 218.303 C 147.231 219.714,149.561 221.114,150.448 221.107 C 150.711 221.106,150.086 220.713,149.060 220.235 C 140.749 216.365,141.076 205.923,149.654 201.301 C 152.562 199.734,152.142 199.599,149.154 201.141 M280.792 203.755 C 279.951 205.834,279.324 207.596,279.398 207.669 C 279.472 207.743,280.220 206.102,281.060 204.023 C 281.901 201.944,282.528 200.182,282.454 200.108 C 282.380 200.035,281.632 201.676,280.792 203.755 M59.802 220.185 C 59.802 231.185,59.850 235.632,59.907 230.066 C 59.965 224.501,59.965 215.501,59.907 210.066 C 59.849 204.632,59.802 209.185,59.802 220.185 M222.222 201.326 C 215.316 205.250,213.915 213.201,219.213 218.412 C 220.509 219.687,223.577 221.361,223.944 220.994 C 224.043 220.895,223.532 220.619,222.809 220.381 C 214.821 217.745,214.562 206.310,222.386 201.674 C 224.896 200.187,224.755 199.887,222.222 201.326 M276.347 214.680 C 275.708 216.248,275.246 217.592,275.320 217.666 C 275.394 217.740,275.977 216.518,276.616 214.949 C 277.255 213.381,277.717 212.038,277.643 211.964 C 277.569 211.890,276.985 213.112,276.347 214.680 M164.983 216.697 C 163.392 218.340,161.080 219.833,158.947 220.595 C 158.202 220.861,157.903 221.086,158.281 221.095 C 159.285 221.119,163.118 218.986,164.924 217.400 L 166.481 216.031 167.152 217.444 C 167.749 218.701,169.720 220.373,170.599 220.369 C 170.779 220.368,170.383 220.036,169.719 219.632 C 168.420 218.840,167.041 216.885,167.038 215.833 C 167.036 214.851,166.588 215.039,164.983 216.697 M239.435 215.954 C 239.033 216.408,237.727 217.504,236.533 218.390 C 235.340 219.275,234.481 220.000,234.624 220.000 C 235.055 220.000,237.130 218.489,238.574 217.125 L 239.925 215.848 240.189 216.720 C 240.888 219.038,244.530 221.184,247.567 221.068 C 248.338 221.038,248.063 220.918,246.716 220.694 C 243.118 220.097,241.366 218.821,240.506 216.175 L 240.166 215.128 239.435 215.954 M231.574 218.033 C 231.931 218.126,232.514 218.126,232.870 218.033 C 233.227 217.940,232.935 217.864,232.222 217.864 C 231.509 217.864,231.218 217.940,231.574 218.033 M139.907 219.891 C 140.366 219.979,140.741 220.285,140.741 220.571 C 140.741 220.984,139.738 221.114,135.833 221.210 L 130.926 221.331 136.111 221.314 C 141.200 221.297,141.298 221.281,141.415 220.463 C 141.518 219.734,141.378 219.636,140.304 219.680 C 139.434 219.716,139.318 219.778,139.907 219.891 M173.245 221.003 C 173.706 221.091,174.372 221.088,174.727 220.995 C 175.081 220.903,174.704 220.830,173.889 220.834 C 173.074 220.838,172.784 220.914,173.245 221.003 M189.352 220.996 C 189.708 221.089,190.292 221.089,190.648 220.996 C 191.005 220.903,190.713 220.827,190.000 220.827 C 189.287 220.827,188.995 220.903,189.352 220.996 M272.642 223.753 C 272.203 224.808,271.906 225.733,271.980 225.808 C 272.055 225.882,272.475 225.080,272.914 224.025 C 273.352 222.969,273.650 222.045,273.575 221.970 C 273.500 221.896,273.081 222.698,272.642 223.753 M270.114 229.553 C 268.694 232.560,267.897 233.612,265.556 235.572 C 264.878 236.139,265.007 236.104,266.039 235.440 C 268.030 234.159,272.476 227.168,271.757 226.448 C 271.690 226.382,270.951 227.779,270.114 229.553 M140.000 227.733 C 140.000 227.911,140.250 228.656,140.556 229.387 C 141.377 231.354,141.388 266.529,140.567 267.614 C 139.925 268.464,139.840 269.259,140.392 269.259 C 140.608 269.259,140.682 269.093,140.556 268.890 C 140.430 268.686,140.587 268.149,140.904 267.696 C 141.755 266.482,141.772 230.752,140.924 229.124 C 140.239 227.812,140.236 227.867,141.019 227.663 C 141.506 227.535,141.460 227.483,140.833 227.450 C 140.375 227.427,140.000 227.554,140.000 227.733 M167.358 230.726 C 167.672 232.568,168.040 234.074,168.175 234.074 C 168.477 234.074,167.426 228.078,167.053 227.671 C 166.906 227.510,167.043 228.885,167.358 230.726 M177.778 227.963 C 177.269 228.254,177.019 228.492,177.222 228.492 C 177.426 228.492,178.009 228.254,178.519 227.963 C 179.028 227.672,179.278 227.434,179.074 227.434 C 178.870 227.434,178.287 227.672,177.778 227.963 M180.085 246.963 C 180.012 263.886,180.079 266.857,180.555 267.776 L 181.109 268.848 179.351 268.987 L 177.593 269.126 179.537 269.193 C 181.540 269.261,182.013 268.827,181.019 267.834 C 180.664 267.480,180.510 262.650,180.363 247.297 L 180.170 227.222 180.085 246.963 M220.741 227.963 C 220.231 228.254,219.981 228.492,220.185 228.492 C 220.389 228.492,220.972 228.254,221.481 227.963 C 221.991 227.672,222.241 227.434,222.037 227.434 C 221.833 227.434,221.250 227.672,220.741 227.963 M222.885 235.222 L 222.992 243.037 224.760 241.384 C 227.118 239.178,227.903 238.800,230.741 238.504 L 233.148 238.253 231.192 238.201 C 228.849 238.138,227.202 238.771,224.985 240.587 L 223.333 241.941 223.333 234.674 C 223.333 230.677,223.208 227.407,223.056 227.407 C 222.903 227.407,222.826 230.924,222.885 235.222 M246.722 228.343 C 243.828 230.779,245.806 235.287,249.704 235.139 C 250.786 235.098,250.739 235.062,249.291 234.828 C 245.423 234.202,244.608 229.207,248.148 227.818 C 248.741 227.585,248.851 227.446,248.454 227.431 C 248.113 227.418,247.334 227.829,246.722 228.343 M251.031 227.965 C 251.780 228.290,252.451 228.961,252.776 229.710 C 253.104 230.465,253.310 230.669,253.319 230.249 C 253.327 229.877,252.846 229.085,252.251 228.490 C 251.655 227.895,250.864 227.414,250.491 227.422 C 250.071 227.431,250.276 227.637,251.031 227.965 M149.131 236.296 C 148.958 240.472,148.875 244.472,148.945 245.185 L 149.074 246.481 153.333 246.502 L 157.593 246.522 153.618 246.397 L 149.643 246.271 149.544 237.488 L 149.444 228.704 149.131 236.296 M162.937 230.037 C 163.636 230.463,164.492 231.171,164.838 231.609 C 165.184 232.048,165.837 232.824,166.289 233.333 L 167.110 234.259 166.366 232.963 C 165.599 231.627,162.870 229.258,162.101 229.261 C 161.862 229.261,162.239 229.611,162.937 230.037 M171.270 230.648 C 171.404 231.208,171.667 232.333,171.852 233.148 C 172.038 233.963,172.197 241.396,172.206 249.667 C 172.217 259.644,172.360 265.099,172.631 265.878 C 173.036 267.039,175.555 268.899,176.699 268.881 C 176.987 268.876,176.527 268.557,175.677 268.171 C 172.689 266.814,172.801 267.524,172.593 248.721 C 172.455 236.342,172.288 231.828,171.944 231.228 C 171.314 230.126,171.337 230.071,172.500 229.895 C 173.415 229.756,173.392 229.735,172.272 229.685 C 171.091 229.633,171.038 229.683,171.270 230.648 M214.251 230.833 C 214.399 231.495,214.663 232.704,214.837 233.519 C 215.011 234.333,215.161 241.833,215.170 250.185 C 215.187 264.373,215.234 265.445,215.884 266.511 C 216.549 267.602,218.629 268.898,219.686 268.881 C 219.960 268.876,219.480 268.553,218.619 268.162 C 215.497 266.744,215.560 267.128,215.548 249.444 C 215.539 235.237,215.408 232.523,214.644 230.678 C 214.455 230.221,214.614 230.016,215.249 229.895 C 215.991 229.753,215.963 229.723,215.046 229.680 C 214.031 229.632,213.994 229.685,214.251 230.833 M256.489 232.473 C 255.762 233.425,255.220 234.383,255.285 234.602 C 255.573 235.570,259.373 237.038,261.455 236.984 L 263.519 236.932 261.111 236.681 C 258.718 236.432,257.431 235.965,256.216 234.907 C 255.070 233.907,257.891 230.875,259.218 231.680 L 260.185 232.266 259.311 231.503 C 258.114 230.460,257.995 230.501,256.489 232.473 M253.210 231.358 C 253.074 231.494,252.963 231.888,252.963 232.233 C 252.963 232.579,252.518 233.307,251.974 233.851 C 251.430 234.395,251.253 234.737,251.581 234.611 C 252.282 234.342,253.124 233.122,253.423 231.944 C 253.647 231.063,253.609 230.959,253.210 231.358 M197.870 238.418 C 198.634 238.498,199.884 238.498,200.648 238.418 C 201.412 238.338,200.787 238.273,199.259 238.273 C 197.731 238.273,197.106 238.338,197.870 238.418 M204.340 239.300 C 206.436 240.106,209.158 242.498,210.244 244.491 C 210.848 245.598,210.947 246.970,211.111 256.481 C 211.243 264.122,211.431 267.457,211.761 268.035 C 212.209 268.818,212.160 268.853,210.465 268.987 L 208.704 269.126 210.648 269.193 C 212.764 269.265,212.813 269.226,212.130 268.031 C 211.801 267.458,211.613 264.095,211.481 256.481 L 211.296 245.741 210.292 244.032 C 208.709 241.339,204.925 238.507,202.963 238.546 C 202.657 238.552,203.277 238.891,204.340 239.300 M250.741 239.473 C 249.824 239.979,249.491 240.282,250.000 240.147 C 250.509 240.011,251.255 239.673,251.656 239.395 C 253.354 238.220,253.333 238.055,253.333 253.066 C 253.333 265.142,253.417 267.362,253.895 268.045 C 254.446 268.831,254.421 268.851,252.692 268.987 L 250.926 269.126 252.870 269.193 C 254.941 269.264,255.105 269.119,254.247 267.985 C 253.791 267.381,253.704 264.957,253.704 252.892 C 253.704 236.648,253.937 237.707,250.741 239.473 M192.593 239.794 C 188.802 241.775,185.291 247.127,187.870 246.994 C 188.497 246.962,188.543 246.909,188.056 246.782 C 187.252 246.572,187.249 246.625,188.163 244.681 C 189.105 242.676,190.359 241.460,192.966 240.023 C 195.349 238.710,195.036 238.518,192.593 239.794 M236.541 239.963 C 238.079 240.869,238.659 241.507,239.504 243.230 L 240.556 245.370 240.776 256.296 L 240.996 267.222 240.961 256.296 L 240.926 245.370 239.952 243.294 C 238.964 241.185,237.263 239.560,235.556 239.091 C 235.046 238.951,235.490 239.344,236.541 239.963 M196.189 240.463 C 194.870 241.713,193.751 243.649,192.992 245.996 C 192.694 246.916,192.285 247.413,191.738 247.519 C 191.040 247.655,191.063 247.684,191.904 247.727 C 192.682 247.767,192.935 247.569,193.136 246.759 C 193.740 244.329,195.621 241.093,196.956 240.186 C 197.706 239.676,198.127 239.259,197.890 239.259 C 197.654 239.259,196.888 239.801,196.189 240.463 M200.762 239.804 C 202.215 240.594,203.008 243.107,203.453 248.333 C 203.539 249.348,203.599 249.091,203.641 247.518 C 203.758 243.204,202.211 239.231,200.430 239.274 C 200.005 239.284,200.108 239.449,200.762 239.804 M60.180 243.339 C 60.314 246.305,61.366 252.091,61.710 251.747 C 61.796 251.661,61.610 250.483,61.296 249.130 C 60.982 247.777,60.571 245.211,60.382 243.428 L 60.039 240.185 60.180 243.339 M226.711 241.316 C 226.093 241.836,224.997 243.442,224.275 244.884 L 222.963 247.507 222.965 257.179 C 222.967 264.772,223.080 267.067,223.489 267.851 L 224.010 268.851 222.283 268.988 L 220.556 269.126 222.500 269.193 C 224.584 269.264,224.874 268.932,223.877 267.614 C 222.815 266.210,223.111 248.085,224.236 245.670 C 225.491 242.974,226.669 241.464,227.963 240.891 C 228.591 240.613,228.805 240.393,228.454 240.385 C 228.113 240.377,227.329 240.796,226.711 241.316 M230.256 240.744 C 232.265 241.553,232.391 242.254,232.614 253.871 C 232.848 266.029,232.976 266.654,235.527 268.087 C 236.311 268.528,237.180 268.889,237.458 268.889 C 237.736 268.888,237.266 268.543,236.414 268.122 C 233.527 266.692,233.542 266.762,233.332 254.444 C 233.119 241.969,232.706 240.260,229.932 240.394 C 229.664 240.407,229.810 240.564,230.256 240.744 M244.605 242.315 C 245.067 244.587,245.495 252.414,245.525 259.138 C 245.555 265.780,245.568 265.884,246.494 266.984 C 247.431 268.098,249.599 269.086,250.466 268.794 C 250.719 268.708,250.330 268.526,249.602 268.389 C 248.847 268.246,247.812 267.653,247.195 267.009 L 246.111 265.879 245.903 254.884 C 245.767 247.670,245.544 243.530,245.255 242.846 C 244.699 241.528,244.693 241.568,245.463 241.366 C 245.928 241.245,245.863 241.185,245.236 241.154 C 244.440 241.115,244.383 241.220,244.605 242.315 M327.493 244.444 C 327.493 245.157,327.570 245.449,327.663 245.093 C 327.756 244.736,327.756 244.153,327.663 243.796 C 327.570 243.440,327.493 243.731,327.493 244.444 M160.256 244.840 C 159.684 245.412,158.851 245.951,158.404 246.038 L 157.593 246.195 158.413 246.246 C 158.864 246.274,159.803 245.796,160.499 245.185 C 162.414 243.503,162.593 243.677,162.593 247.222 C 162.593 250.524,162.141 251.241,161.040 249.688 C 160.491 248.915,159.177 248.141,158.450 248.163 C 158.182 248.171,158.492 248.407,159.138 248.688 C 159.784 248.969,160.498 249.546,160.725 249.970 C 161.930 252.222,162.963 250.954,162.963 247.222 C 162.963 243.211,162.389 242.706,160.256 244.840 M148.889 257.778 C 148.889 264.198,149.021 267.778,149.259 267.778 C 149.497 267.778,149.630 264.263,149.630 257.975 L 149.630 248.172 153.796 248.054 L 157.963 247.936 153.426 247.857 L 148.889 247.778 148.889 257.778 M193.704 251.239 C 192.245 251.764,190.769 252.564,191.228 252.581 C 191.394 252.588,191.893 252.398,192.337 252.161 C 192.781 251.923,193.895 251.521,194.813 251.268 C 195.731 251.014,196.148 250.799,195.741 250.790 C 195.333 250.781,194.417 250.983,193.704 251.239 M203.416 256.459 C 203.310 263.576,202.156 265.503,197.531 266.279 C 195.916 266.550,195.869 266.584,197.051 266.623 C 198.777 266.680,201.365 265.325,202.674 263.679 L 203.724 262.358 203.611 256.642 L 203.498 250.926 203.416 256.459 M197.500 252.212 C 196.634 252.605,195.926 253.009,195.926 253.109 C 195.926 253.210,196.634 252.987,197.500 252.615 C 198.366 252.243,199.324 251.849,199.630 251.739 C 200.123 251.562,200.123 251.538,199.630 251.519 C 199.324 251.507,198.366 251.819,197.500 252.212 M61.869 252.456 C 61.743 255.570,67.867 265.963,72.926 271.218 C 76.527 274.959,84.444 280.917,84.444 279.885 C 84.444 279.783,83.653 279.242,82.685 278.682 C 74.172 273.755,66.891 265.021,63.100 255.185 C 62.432 253.454,61.878 252.226,61.869 252.456 M188.252 253.888 C 183.358 257.183,182.936 263.866,187.397 267.399 C 189.371 268.963,189.570 268.797,187.721 267.130 C 183.231 263.081,183.907 257.081,189.239 253.652 C 190.145 253.069,190.726 252.593,190.531 252.593 C 190.335 252.593,189.310 253.175,188.252 253.888 M194.371 254.352 C 191.223 257.716,191.037 263.474,194.013 265.415 C 194.935 266.016,194.921 265.968,193.802 264.689 C 191.418 261.966,191.827 257.466,194.741 254.352 C 195.265 253.792,195.611 253.333,195.509 253.333 C 195.407 253.333,194.895 253.792,194.371 254.352 M324.148 256.741 C 323.704 257.791,323.400 258.709,323.472 258.781 C 323.544 258.853,323.970 258.057,324.420 257.012 C 324.869 255.968,325.173 255.050,325.096 254.972 C 325.018 254.895,324.592 255.691,324.148 256.741 M165.899 263.796 C 165.449 264.458,164.562 265.469,163.929 266.042 C 163.263 266.645,163.090 266.933,163.519 266.724 C 164.373 266.309,165.545 265.075,166.475 263.611 C 167.386 262.178,166.891 262.337,165.899 263.796 M167.360 265.926 C 167.047 267.759,166.895 269.259,167.023 269.259 C 167.151 269.259,167.512 267.759,167.825 265.926 C 168.138 264.093,168.290 262.593,168.162 262.593 C 168.034 262.593,167.673 264.093,167.360 265.926 M318.939 266.076 C 317.860 267.584,315.532 270.283,313.766 272.073 C 312.000 273.863,311.439 274.554,312.519 273.609 C 315.274 271.197,318.633 267.321,320.542 264.352 C 321.834 262.341,320.862 263.387,318.939 266.076 M202.573 265.391 C 202.084 265.912,200.943 266.829,200.038 267.428 C 199.132 268.028,198.562 268.519,198.770 268.519 C 199.241 268.519,201.860 266.634,202.545 265.802 C 203.240 264.959,203.450 265.020,203.978 266.213 C 204.392 267.148,206.138 268.521,206.909 268.517 C 207.081 268.516,206.671 268.179,205.996 267.768 C 205.322 267.357,204.528 266.441,204.232 265.733 C 203.589 264.194,203.680 264.213,202.573 265.391 M161.111 267.407 C 160.348 267.652,160.316 267.709,160.926 267.735 C 161.333 267.752,161.917 267.605,162.222 267.407 C 162.871 266.988,162.421 266.988,161.111 267.407 M241.483 267.851 C 242.165 268.675,241.861 268.889,239.907 268.956 L 237.963 269.022 239.774 269.163 C 241.867 269.326,242.712 268.809,241.745 267.959 C 241.398 267.654,241.280 267.605,241.483 267.851 M193.061 269.525 C 193.624 269.610,194.457 269.608,194.912 269.520 C 195.368 269.432,194.907 269.362,193.889 269.365 C 192.870 269.368,192.498 269.440,193.061 269.525 M93.148 277.606 C 93.759 277.886,94.509 278.110,94.815 278.103 C 95.120 278.097,94.787 277.867,94.074 277.593 C 92.383 276.941,91.718 276.951,93.148 277.606 M304.089 279.283 C 302.366 280.289,301.120 281.111,301.319 281.111 C 301.754 281.111,307.407 277.836,307.407 277.584 C 307.407 277.337,307.550 277.264,304.089 279.283 M96.852 278.714 C 97.667 278.983,98.750 279.201,99.259 279.199 C 99.769 279.198,99.269 278.967,98.148 278.688 C 95.602 278.052,94.888 278.067,96.852 278.714 M149.196 279.907 C 173.912 279.960,214.245 279.960,238.826 279.907 C 263.407 279.855,243.185 279.812,193.889 279.812 C 144.593 279.812,124.481 279.855,149.196 279.907 M87.778 281.667 C 88.287 281.958,88.870 282.196,89.074 282.196 C 89.278 282.196,89.028 281.958,88.519 281.667 C 88.009 281.376,87.426 281.137,87.222 281.137 C 87.019 281.137,87.269 281.376,87.778 281.667 M147.900 285.463 C 173.329 285.515,214.829 285.515,240.122 285.463 C 265.416 285.410,244.611 285.367,193.889 285.367 C 143.167 285.367,122.472 285.410,147.900 285.463 " stroke="none" fill="#919191" fill-rule="evenodd"></path><path id="path1" d="M211.967 180.926 C 211.969 182.148,212.038 182.603,212.120 181.938 C 212.203 181.272,212.201 180.272,212.116 179.716 C 212.032 179.159,211.965 179.704,211.967 180.926 M212.022 201.296 C 212.022 210.463,212.071 214.160,212.129 209.512 C 212.188 204.864,212.188 197.364,212.129 192.845 C 212.070 188.327,212.022 192.130,212.022 201.296 M249.417 202.037 C 249.417 206.519,249.471 208.301,249.536 205.998 C 249.601 203.695,249.601 200.028,249.535 197.850 C 249.470 195.671,249.417 197.556,249.417 202.037 M60.173 220.000 C 60.173 231.306,60.220 235.931,60.278 230.278 C 60.335 224.625,60.335 215.375,60.278 209.722 C 60.220 204.069,60.173 208.694,60.173 220.000 M322.394 220.000 C 322.394 230.491,322.442 234.782,322.500 229.537 C 322.558 224.292,322.558 215.708,322.500 210.463 C 322.442 205.218,322.394 209.509,322.394 220.000 M154.795 202.870 L 153.519 204.259 154.907 202.983 C 156.200 201.795,156.467 201.481,156.184 201.481 C 156.122 201.481,155.497 202.106,154.795 202.870 M106.027 214.815 C 106.027 215.731,106.099 216.106,106.187 215.648 C 106.276 215.190,106.276 214.440,106.187 213.981 C 106.099 213.523,106.027 213.898,106.027 214.815 M149.018 233.333 C 149.018 235.065,149.082 235.773,149.160 234.907 C 149.238 234.042,149.238 232.625,149.160 231.759 C 149.082 230.894,149.018 231.602,149.018 233.333 M203.852 256.481 C 203.852 259.537,203.910 260.738,203.979 259.150 C 204.049 257.562,204.048 255.062,203.978 253.594 C 203.908 252.127,203.851 253.426,203.852 256.481 " stroke="none" fill="#b4b4b4" fill-rule="evenodd"></path><path id="path2" d="M99.074 155.399 C 78.734 158.826,63.252 175.194,60.739 195.926 C 60.011 201.937,60.438 244.605,61.262 248.148 C 65.572 266.679,78.654 279.903,97.037 284.314 C 100.423 285.126,281.816 285.602,287.593 284.814 C 307.087 282.153,322.406 267.767,326.751 248.042 C 327.917 242.744,328.059 198.955,326.929 192.963 C 323.383 174.163,309.905 160.280,290.741 155.687 C 287.014 154.794,104.295 154.520,99.074 155.399 M285.936 160.375 C 305.709 162.735,320.288 177.766,322.239 197.802 C 322.936 204.963,322.503 243.495,321.685 247.037 C 317.661 264.470,304.575 276.878,287.499 279.451 C 282.956 280.136,106.253 280.286,101.231 279.610 C 83.747 277.254,69.805 264.257,66.298 247.043 C 65.278 242.038,65.153 198.873,66.143 193.652 C 69.471 176.105,84.032 162.410,101.481 160.414 C 105.559 159.947,282.043 159.910,285.936 160.375 M192.328 169.032 C 186.986 170.784,183.844 174.593,183.424 179.828 C 183.241 182.108,183.194 182.197,181.526 183.398 L 179.815 184.630 181.574 184.743 L 183.333 184.855 183.335 200.668 C 183.336 218.584,183.256 218.079,186.336 219.650 C 187.624 220.307,193.333 221.276,193.333 220.838 C 193.333 220.770,193.042 220.270,192.685 219.726 C 192.096 218.827,192.027 217.196,191.930 201.776 L 191.824 184.815 194.986 184.815 C 197.901 184.815,198.148 184.757,198.148 184.074 C 198.148 183.391,197.901 183.333,194.950 183.333 L 191.751 183.333 191.928 177.870 C 192.162 170.634,192.646 169.630,195.899 169.630 C 198.260 169.630,199.169 171.209,199.501 175.888 L 199.738 179.223 201.443 179.334 L 203.148 179.444 203.035 180.741 C 202.949 181.721,202.543 182.373,201.368 183.415 L 199.815 184.793 201.389 184.804 L 202.963 184.815 202.965 199.907 C 202.968 219.765,203.038 219.955,210.648 220.699 C 213.570 220.984,213.643 220.956,212.685 219.898 C 212.091 219.241,212.028 217.757,211.934 201.998 L 211.831 184.815 214.804 184.815 C 217.531 184.815,217.778 184.753,217.778 184.074 C 217.778 183.395,217.531 183.333,214.815 183.333 L 211.852 183.333 211.854 178.426 C 211.857 171.019,212.592 169.452,215.951 169.699 C 218.400 169.880,219.013 170.988,219.197 175.566 L 219.345 179.259 223.047 179.259 L 226.749 179.259 226.506 177.870 C 225.267 170.776,218.731 166.920,211.883 169.243 C 209.391 170.088,206.387 171.926,206.046 172.813 C 205.721 173.661,205.066 173.416,203.963 172.034 C 201.719 169.222,196.140 167.782,192.328 169.032 M95.556 169.541 C 95.556 169.742,95.894 170.671,96.307 171.605 C 97.389 174.050,97.294 217.692,96.204 219.355 C 95.079 221.071,95.200 221.111,101.468 221.111 L 107.381 221.111 106.654 219.414 C 106.012 217.918,105.926 216.849,105.926 210.409 L 105.926 203.102 106.944 202.146 C 112.886 196.573,116.703 198.860,123.447 212.037 C 127.465 219.886,129.170 221.111,136.074 221.111 C 140.832 221.111,142.714 220.417,139.410 219.881 C 136.617 219.428,134.751 217.134,129.597 207.815 C 126.660 202.506,124.466 199.729,121.948 198.130 L 120.378 197.134 122.689 196.304 C 130.014 193.673,132.703 190.339,132.684 183.906 C 132.662 176.519,128.987 172.174,121.046 170.147 C 118.263 169.437,95.556 168.897,95.556 169.541 M117.242 171.359 C 124.613 173.866,127.571 185.195,122.521 191.572 C 120.917 193.598,117.783 195.560,113.510 197.216 C 111.565 197.970,109.130 199.154,108.098 199.849 C 107.066 200.543,106.155 201.111,106.074 201.111 C 105.993 201.111,105.926 194.169,105.926 185.684 L 105.926 170.256 110.668 170.496 C 113.528 170.641,116.138 170.984,117.242 171.359 M156.009 183.673 C 152.089 185.123,148.990 187.613,147.539 190.477 C 146.361 192.800,146.536 193.172,148.950 193.487 C 150.037 193.629,151.266 193.828,151.682 193.930 C 152.330 194.089,152.587 193.729,153.482 191.410 C 156.047 184.758,159.705 182.191,163.684 184.249 C 165.619 185.250,167.009 189.734,167.030 195.040 L 167.037 196.932 163.611 197.381 C 150.275 199.127,143.529 203.613,143.522 210.741 C 143.511 221.335,156.109 224.956,164.703 216.830 C 167.103 214.560,167.037 214.600,167.037 215.413 C 167.037 217.594,169.970 220.162,172.893 220.540 C 173.746 220.650,175.110 220.826,175.923 220.930 L 177.401 221.119 176.665 219.911 C 175.970 218.772,175.929 218.026,175.927 206.738 C 175.926 191.857,175.599 190.331,171.628 186.671 C 167.880 183.216,160.876 181.872,156.009 183.673 M229.594 183.646 C 224.891 185.196,218.995 191.037,220.187 192.966 C 220.344 193.220,224.056 193.861,225.490 193.882 C 225.760 193.886,226.444 192.698,227.011 191.242 C 229.112 185.840,231.264 183.704,234.603 183.704 C 238.487 183.704,240.358 187.264,240.368 194.670 L 240.370 196.932 236.944 197.386 C 224.104 199.086,217.232 203.508,216.761 210.370 C 216.045 220.809,229.249 224.937,237.942 216.992 C 240.028 215.086,240.715 214.980,240.735 216.561 C 240.759 218.495,244.351 220.418,248.796 220.876 C 250.913 221.094,251.069 220.977,250.093 219.898 C 249.509 219.254,249.426 217.876,249.259 205.980 L 249.074 192.778 248.113 190.741 C 245.175 184.511,236.754 181.285,229.594 183.646 M259.792 184.051 C 257.604 184.575,252.479 187.780,252.995 188.302 C 253.115 188.423,253.744 188.337,254.394 188.110 C 259.053 186.486,260.852 189.286,270.536 213.221 C 273.382 220.254,273.286 219.442,271.709 223.180 C 267.692 232.706,264.344 235.143,259.561 232.023 L 258.196 231.133 257.061 232.676 C 255.588 234.680,255.591 234.693,257.870 235.754 C 262.704 238.005,267.082 235.845,269.799 229.869 C 271.120 226.964,283.073 197.756,285.551 191.378 C 286.404 189.182,287.659 186.557,288.341 185.545 L 289.580 183.704 286.955 183.704 L 284.330 183.704 285.035 184.484 C 286.488 186.091,286.010 188.256,282.033 198.065 C 280.028 203.010,278.235 207.004,278.048 206.942 C 277.861 206.880,276.326 203.501,274.636 199.433 C 270.411 189.263,269.891 188.181,268.382 186.437 C 266.217 183.935,263.468 183.171,259.792 184.051 M167.037 205.500 L 167.037 212.481 165.980 213.926 C 159.558 222.703,148.635 216.401,152.618 206.217 C 154.316 201.876,159.673 198.629,165.278 198.545 L 167.037 198.519 167.037 205.500 M240.370 205.389 C 240.370 212.926,240.275 213.347,238.087 215.442 C 230.887 222.336,221.769 214.437,226.414 205.330 C 228.387 201.463,233.494 198.622,238.611 198.545 L 240.370 198.519 240.370 205.389 M177.407 228.514 C 176.083 229.111,174.278 229.710,173.395 229.846 C 171.976 230.065,171.817 230.185,172.025 230.880 C 172.724 233.217,172.940 237.869,172.951 250.858 C 172.963 265.833,172.995 266.151,174.591 267.459 C 176.378 268.923,181.794 269.517,180.520 268.109 C 179.845 267.363,179.815 266.479,179.815 247.369 C 179.815 236.390,179.815 227.412,179.815 227.418 C 179.815 227.424,178.731 227.917,177.407 228.514 M140.741 227.918 C 140.741 227.995,140.991 228.656,141.296 229.387 C 142.104 231.319,142.104 265.995,141.296 267.407 C 141.005 267.917,140.761 268.454,140.754 268.602 C 140.747 268.749,146.561 268.916,153.675 268.972 L 166.610 269.074 167.152 266.111 C 167.818 262.467,167.642 262.078,166.291 264.208 C 164.248 267.430,162.697 267.963,155.370 267.963 L 149.074 267.963 148.976 257.870 L 148.877 247.778 153.235 247.780 C 158.238 247.782,160.042 248.169,161.055 249.457 C 162.130 250.823,162.222 250.646,162.222 247.222 C 162.222 243.629,162.294 243.734,160.793 245.136 C 159.370 246.465,158.357 246.667,153.095 246.667 L 148.876 246.667 148.975 237.685 L 149.074 228.704 155.000 228.704 C 162.622 228.704,164.408 229.374,166.683 233.086 C 167.491 234.405,167.825 233.923,167.423 232.017 C 167.254 231.213,167.006 229.931,166.874 229.167 L 166.633 227.778 153.687 227.778 C 146.567 227.778,140.741 227.841,140.741 227.918 M220.209 228.594 C 219.407 228.999,217.810 229.505,216.660 229.719 L 214.568 230.108 215.144 231.628 C 215.625 232.900,215.738 235.777,215.831 249.225 C 215.965 268.643,215.844 268.256,221.942 268.792 L 224.259 268.995 223.519 268.162 C 222.816 267.373,222.778 266.804,222.778 257.276 L 222.778 247.222 223.744 245.185 C 224.879 242.793,227.101 240.395,228.259 240.313 C 230.562 240.150,231.741 240.702,232.719 242.403 C 233.005 242.900,233.210 246.813,233.333 254.140 C 233.543 266.606,233.502 266.435,236.674 268.056 C 239.163 269.327,242.351 269.165,241.019 267.834 C 240.677 267.493,240.507 264.432,240.370 256.186 C 240.144 242.519,239.961 241.862,235.782 239.743 C 231.771 237.709,228.129 238.289,224.888 241.480 C 222.505 243.825,222.593 244.061,222.593 235.309 C 222.593 227.017,222.705 227.334,220.209 228.594 M247.009 228.860 C 245.858 230.011,245.630 231.322,246.340 232.710 C 247.717 235.404,251.071 235.548,252.404 232.970 C 254.337 229.232,249.966 225.903,247.009 228.860 M195.214 239.127 C 191.304 240.496,186.587 245.229,187.862 246.504 C 188.721 247.363,192.593 247.367,192.593 246.509 C 192.593 245.434,195.228 240.848,196.303 240.054 C 200.099 237.247,202.937 239.385,203.780 245.685 C 204.327 249.772,204.289 249.838,201.236 250.150 C 188.593 251.444,181.973 257.971,186.122 265.052 C 189.237 270.368,197.261 270.543,202.202 265.402 C 203.651 263.894,204.074 263.759,204.074 264.802 C 204.074 266.060,206.139 268.020,207.941 268.474 C 210.983 269.240,212.512 268.956,211.389 267.834 C 211.049 267.494,210.877 264.505,210.741 256.556 C 210.565 246.287,210.514 245.663,209.735 244.206 C 207.286 239.628,200.533 237.265,195.214 239.127 M250.370 240.059 C 249.046 240.617,247.321 241.176,246.535 241.302 C 245.202 241.515,245.125 241.595,245.367 242.524 C 245.510 243.071,245.748 248.461,245.896 254.502 C 246.196 266.753,246.240 266.957,248.802 268.028 C 251.661 269.223,254.871 269.093,253.611 267.834 C 253.264 267.487,253.102 263.838,252.963 253.208 L 252.778 239.044 250.370 240.059 M203.991 256.387 C 204.091 261.675,204.066 261.880,203.163 263.234 C 199.381 268.906,191.558 267.119,191.726 260.621 C 191.868 255.145,195.117 252.052,201.852 250.981 C 203.933 250.651,203.881 250.519,203.991 256.387 " stroke="none" fill="#fbfbfb" fill-rule="evenodd"></path><path id="path3" d="M199.360 177.778 C 199.360 178.694,199.432 179.069,199.521 178.611 C 199.609 178.153,199.609 177.403,199.521 176.944 C 199.432 176.486,199.360 176.861,199.360 177.778 M249.395 213.519 C 249.395 215.556,249.458 216.342,249.533 215.265 C 249.608 214.189,249.607 212.522,249.531 211.562 C 249.455 210.601,249.394 211.481,249.395 213.519 M96.768 214.815 C 96.768 215.731,96.840 216.106,96.928 215.648 C 97.016 215.190,97.016 214.440,96.928 213.981 C 96.840 213.523,96.768 213.898,96.768 214.815 M147.870 227.685 C 151.282 227.746,156.866 227.746,160.278 227.685 C 163.690 227.623,160.898 227.573,154.074 227.573 C 147.250 227.573,144.458 227.623,147.870 227.685 M141.653 248.333 C 141.653 258.111,141.701 262.058,141.759 257.104 C 141.817 252.150,141.817 244.150,141.759 239.326 C 141.700 234.502,141.653 238.556,141.653 248.333 M253.130 252.222 C 253.130 259.657,253.180 262.699,253.240 258.981 C 253.301 255.264,253.301 249.181,253.240 245.463 C 253.180 241.745,253.130 244.787,253.130 252.222 M162.354 247.222 C 162.353 249.056,162.415 249.852,162.493 248.993 C 162.571 248.133,162.571 246.633,162.495 245.659 C 162.418 244.686,162.355 245.389,162.354 247.222 " stroke="none" fill="#bcbcbc" fill-rule="evenodd"></path><path id="path4" d="M73.501 168.611 L 72.037 170.185 73.611 168.721 C 75.075 167.360,75.355 167.037,75.075 167.037 C 75.015 167.037,74.306 167.745,73.501 168.611 M77.199 172.315 L 76.111 173.519 77.315 172.431 C 77.977 171.832,78.519 171.291,78.519 171.227 C 78.519 170.941,78.213 171.193,77.199 172.315 M96.838 191.296 C 96.838 201.481,96.886 205.595,96.944 200.437 C 97.002 195.279,97.002 186.946,96.944 181.919 C 96.886 176.891,96.838 181.111,96.838 191.296 M191.987 179.815 C 191.988 181.852,192.050 182.638,192.125 181.562 C 192.200 180.485,192.200 178.819,192.124 177.858 C 192.048 176.897,191.986 177.778,191.987 179.815 M183.132 199.815 C 183.132 208.167,183.181 211.636,183.240 207.525 C 183.300 203.413,183.300 196.580,183.240 192.340 C 183.181 188.099,183.132 191.463,183.132 199.815 M192.022 201.296 C 192.022 210.463,192.071 214.160,192.129 209.512 C 192.188 204.864,192.188 197.364,192.129 192.845 C 192.070 188.327,192.022 192.130,192.022 201.296 M327.493 198.519 C 327.493 199.231,327.570 199.523,327.663 199.167 C 327.756 198.810,327.756 198.227,327.663 197.870 C 327.570 197.514,327.493 197.806,327.493 198.519 M228.128 202.870 L 226.852 204.259 228.241 202.983 C 229.533 201.795,229.800 201.481,229.517 201.481 C 229.455 201.481,228.830 202.106,228.128 202.870 M145.717 204.167 L 144.630 205.370 145.833 204.283 C 146.955 203.269,147.207 202.963,146.921 202.963 C 146.857 202.963,146.316 203.505,145.717 204.167 M96.753 212.222 C 96.753 212.935,96.829 213.227,96.922 212.870 C 97.015 212.514,97.015 211.931,96.922 211.574 C 96.829 211.218,96.753 211.509,96.753 212.222 M153.615 221.373 C 154.076 221.462,154.743 221.458,155.097 221.366 C 155.451 221.273,155.074 221.200,154.259 221.205 C 153.444 221.209,153.155 221.284,153.615 221.373 M226.949 221.373 C 227.409 221.462,228.076 221.458,228.430 221.366 C 228.784 221.273,228.407 221.200,227.593 221.205 C 226.778 221.209,226.488 221.284,226.949 221.373 M179.629 246.778 L 179.815 266.111 179.911 247.059 C 179.964 236.580,179.880 227.880,179.726 227.725 C 179.571 227.571,179.528 236.144,179.629 246.778 M222.677 235.441 C 222.594 242.818,222.762 243.947,223.754 242.681 C 224.210 242.100,224.197 242.086,223.619 242.539 C 223.017 243.010,222.972 242.585,222.870 235.502 L 222.762 227.963 222.677 235.441 M151.961 228.794 C 153.549 228.864,156.049 228.863,157.517 228.793 C 158.984 228.723,157.685 228.666,154.630 228.667 C 151.574 228.667,150.373 228.725,151.961 228.794 M172.761 249.815 C 172.761 257.759,172.810 260.957,172.870 256.920 C 172.930 252.883,172.930 246.383,172.870 242.475 C 172.810 238.568,172.761 241.870,172.761 249.815 M215.723 249.444 C 215.723 256.981,215.773 260.012,215.833 256.179 C 215.893 252.347,215.893 246.180,215.833 242.476 C 215.772 238.772,215.723 241.907,215.723 249.444 M327.493 241.481 C 327.493 242.194,327.570 242.486,327.663 242.130 C 327.756 241.773,327.756 241.190,327.663 240.833 C 327.570 240.477,327.493 240.769,327.493 241.481 M210.901 256.481 C 210.901 261.574,210.953 263.709,211.017 261.225 C 211.081 258.742,211.081 254.575,211.018 251.966 C 210.954 249.357,210.902 251.389,210.901 256.481 M222.754 257.407 C 222.754 262.602,222.806 264.727,222.869 262.130 C 222.933 259.532,222.933 255.282,222.869 252.685 C 222.806 250.088,222.754 252.213,222.754 257.407 M240.531 257.222 C 240.531 262.315,240.583 264.450,240.647 261.966 C 240.711 259.482,240.711 255.316,240.647 252.707 C 240.584 250.098,240.531 252.130,240.531 257.222 M193.866 254.537 L 192.778 255.741 193.981 254.653 C 194.644 254.055,195.185 253.513,195.185 253.449 C 195.185 253.163,194.880 253.415,193.866 254.537 M202.384 265.278 L 201.296 266.481 202.591 265.370 C 203.303 264.759,203.955 264.218,204.041 264.167 C 204.127 264.116,204.034 264.074,203.835 264.074 C 203.635 264.074,202.982 264.616,202.384 265.278 M151.961 268.053 C 153.549 268.123,156.049 268.123,157.517 268.052 C 158.984 267.982,157.685 267.925,154.630 267.926 C 151.574 267.926,150.373 267.984,151.961 268.053 M147.476 269.166 C 150.875 269.227,156.542 269.227,160.069 269.166 C 163.596 269.105,160.815 269.055,153.889 269.055 C 146.963 269.055,144.077 269.105,147.476 269.166 M73.704 271.667 C 74.810 272.787,75.799 273.704,75.901 273.704 C 76.002 273.704,75.181 272.787,74.074 271.667 C 72.968 270.546,71.979 269.630,71.877 269.630 C 71.775 269.630,72.597 270.546,73.704 271.667 " stroke="none" fill="#c4c4c4" fill-rule="evenodd"></path></g></svg>